# xmcd
#
# Track frame offsets: 
#        150
#        10098
#        21488
#        30232
#        39153
#        49595
#        60695
#        69700
#        82284
#        93518
#        104139
#        114781
#        126476
#        137134
#        147665
#        157172
#        171178
#        182969
#        196449
#        208608
#        219478
#
# Disc length: 3056 seconds
#
# Revision: 0
# Processed by: cddbd v1.5.2PL0 Copyright (c) Steve Scherf et al.
# Submitted via: ExactAudioCopy v1.3
#
DISCID=3f0bee15
DTITLE=Sam Cooke - Singles Collection 1951-1962
DYEAR=2017
DGENRE=Soul
TTITLE0=Only sixteen
TTITLE1=Let's go steady again
TTITLE2=Happy in love
TTITLE3=I need you now
TTITLE4=Summertime [Part 1]
TTITLE5=Summertime [Part 2]
TTITLE6=There! I've said it again
TTITLE7=One hour ahead of the posse
TTITLE8=Steal away
TTITLE9=So glamorous
TTITLE10=Mary, Mary Lou
TTITLE11=Ee-yi-ee-yi oh
TTITLE12=T'ain't nobody's bizness (if I do)
TTITLE13=No one (can ever take your place)
TTITLE14=(What a) Wonderful world
TTITLE15=Along the Navajo trail
TTITLE16=With you
TTITLE17=I thank God
TTITLE18=Teenage sonata
TTITLE19=If you were the only girl
TTITLE20=You understand me
EXTD=
EXTT0=
EXTT1=
EXTT2=
EXTT3=
EXTT4=
EXTT5=
EXTT6=
EXTT7=
EXTT8=
EXTT9=
EXTT10=
EXTT11=
EXTT12=
EXTT13=
EXTT14=
EXTT15=
EXTT16=
EXTT17=
EXTT18=
EXTT19=
EXTT20=
PLAYORDER=
